<mxfile host="app.diagrams.net" modified="2022-08-15T07:40:13.925Z" agent="5.0 (Macintosh; Intel Mac OS X 10_15_7) AppleWebKit/537.36 (KHTML, like Gecko) Chrome/104.0.0.0 Safari/537.36" etag="LhbO3GY1Jdr9OvhIOGcY" version="20.2.3" type="github">
  <diagram id="DIGLBmIxfMBTLwVZg4zG" name="第 1 页">
    <mxGraphModel dx="1964" dy="572" grid="1" gridSize="10" guides="1" tooltips="1" connect="1" arrows="1" fold="1" page="1" pageScale="1" pageWidth="827" pageHeight="1169" math="0" shadow="0">
      <root>
        <mxCell id="0" />
        <mxCell id="1" parent="0" />
        <mxCell id="d3GLhMi2jsoCm6vwqvOL-1" value="聚合器API" style="rounded=1;whiteSpace=wrap;html=1;" vertex="1" parent="1">
          <mxGeometry x="20" y="260" width="120" height="60" as="geometry" />
        </mxCell>
        <mxCell id="d3GLhMi2jsoCm6vwqvOL-2" value="manager" style="rounded=1;whiteSpace=wrap;html=1;" vertex="1" parent="1">
          <mxGeometry x="360" y="260" width="120" height="60" as="geometry" />
        </mxCell>
        <mxCell id="d3GLhMi2jsoCm6vwqvOL-10" style="edgeStyle=orthogonalEdgeStyle;rounded=0;orthogonalLoop=1;jettySize=auto;html=1;exitX=1;exitY=0.5;exitDx=0;exitDy=0;entryX=0;entryY=0.5;entryDx=0;entryDy=0;" edge="1" parent="1" source="d3GLhMi2jsoCm6vwqvOL-8" target="d3GLhMi2jsoCm6vwqvOL-22">
          <mxGeometry relative="1" as="geometry">
            <mxPoint x="350" y="490" as="targetPoint" />
          </mxGeometry>
        </mxCell>
        <mxCell id="d3GLhMi2jsoCm6vwqvOL-19" style="edgeStyle=orthogonalEdgeStyle;rounded=0;orthogonalLoop=1;jettySize=auto;html=1;exitX=0.5;exitY=0;exitDx=0;exitDy=0;" edge="1" parent="1" source="d3GLhMi2jsoCm6vwqvOL-8" target="d3GLhMi2jsoCm6vwqvOL-15">
          <mxGeometry relative="1" as="geometry" />
        </mxCell>
        <mxCell id="d3GLhMi2jsoCm6vwqvOL-34" value="" style="edgeStyle=orthogonalEdgeStyle;rounded=0;orthogonalLoop=1;jettySize=auto;html=1;" edge="1" parent="1" source="d3GLhMi2jsoCm6vwqvOL-8" target="d3GLhMi2jsoCm6vwqvOL-33">
          <mxGeometry relative="1" as="geometry" />
        </mxCell>
        <mxCell id="d3GLhMi2jsoCm6vwqvOL-8" value="node-task" style="rounded=1;whiteSpace=wrap;html=1;" vertex="1" parent="1">
          <mxGeometry x="20" y="460" width="120" height="60" as="geometry" />
        </mxCell>
        <mxCell id="d3GLhMi2jsoCm6vwqvOL-9" value="定时任务监听deposite&lt;br&gt;" style="text;html=1;align=center;verticalAlign=middle;resizable=0;points=[];autosize=1;strokeColor=none;fillColor=none;" vertex="1" parent="1">
          <mxGeometry x="-64" y="390" width="140" height="30" as="geometry" />
        </mxCell>
        <mxCell id="d3GLhMi2jsoCm6vwqvOL-11" value="web3Singer、vault交互，创建node" style="text;html=1;strokeColor=none;fillColor=none;align=center;verticalAlign=middle;whiteSpace=wrap;rounded=0;" vertex="1" parent="1">
          <mxGeometry x="440" y="360" width="210" height="30" as="geometry" />
        </mxCell>
        <mxCell id="d3GLhMi2jsoCm6vwqvOL-14" value="返回depositData" style="text;html=1;align=center;verticalAlign=middle;resizable=0;points=[];autosize=1;strokeColor=none;fillColor=none;" vertex="1" parent="1">
          <mxGeometry x="190" y="300" width="110" height="30" as="geometry" />
        </mxCell>
        <mxCell id="d3GLhMi2jsoCm6vwqvOL-15" value="存储pubkey，维护deposite状态" style="text;html=1;align=center;verticalAlign=middle;resizable=0;points=[];autosize=1;strokeColor=none;fillColor=none;" vertex="1" parent="1">
          <mxGeometry x="-15" y="330" width="190" height="30" as="geometry" />
        </mxCell>
        <mxCell id="d3GLhMi2jsoCm6vwqvOL-16" value="记来源，source&lt;br&gt;ethdo生成depositeData，并存储&lt;br&gt;pubkey、keystore另外存储" style="text;html=1;align=center;verticalAlign=middle;resizable=0;points=[];autosize=1;strokeColor=none;fillColor=none;" vertex="1" parent="1">
          <mxGeometry x="475" y="255" width="200" height="60" as="geometry" />
        </mxCell>
        <mxCell id="d3GLhMi2jsoCm6vwqvOL-18" value="network、address、source&lt;br&gt;生成key" style="text;html=1;align=center;verticalAlign=middle;resizable=0;points=[];autosize=1;strokeColor=none;fillColor=none;" vertex="1" parent="1">
          <mxGeometry x="160" y="240" width="170" height="40" as="geometry" />
        </mxCell>
        <mxCell id="d3GLhMi2jsoCm6vwqvOL-21" value="network、pubkeys、source" style="text;html=1;align=center;verticalAlign=middle;resizable=0;points=[];autosize=1;strokeColor=none;fillColor=none;" vertex="1" parent="1">
          <mxGeometry x="450" y="390" width="170" height="30" as="geometry" />
        </mxCell>
        <mxCell id="d3GLhMi2jsoCm6vwqvOL-23" style="edgeStyle=orthogonalEdgeStyle;rounded=0;orthogonalLoop=1;jettySize=auto;html=1;exitX=0.5;exitY=0;exitDx=0;exitDy=0;entryX=0.5;entryY=1;entryDx=0;entryDy=0;" edge="1" parent="1" source="d3GLhMi2jsoCm6vwqvOL-22" target="d3GLhMi2jsoCm6vwqvOL-2">
          <mxGeometry relative="1" as="geometry" />
        </mxCell>
        <mxCell id="d3GLhMi2jsoCm6vwqvOL-22" value="node-service" style="rounded=0;whiteSpace=wrap;html=1;" vertex="1" parent="1">
          <mxGeometry x="360" y="460" width="120" height="60" as="geometry" />
        </mxCell>
        <mxCell id="d3GLhMi2jsoCm6vwqvOL-27" style="edgeStyle=orthogonalEdgeStyle;rounded=0;orthogonalLoop=1;jettySize=auto;html=1;exitX=1;exitY=0.3333333333333333;exitDx=0;exitDy=0;exitPerimeter=0;entryX=0;entryY=0.25;entryDx=0;entryDy=0;" edge="1" parent="1" source="d3GLhMi2jsoCm6vwqvOL-26" target="d3GLhMi2jsoCm6vwqvOL-1">
          <mxGeometry relative="1" as="geometry" />
        </mxCell>
        <mxCell id="d3GLhMi2jsoCm6vwqvOL-26" value="" style="shape=umlActor;verticalLabelPosition=bottom;verticalAlign=top;html=1;outlineConnect=0;" vertex="1" parent="1">
          <mxGeometry x="-210" y="255" width="30" height="60" as="geometry" />
        </mxCell>
        <mxCell id="d3GLhMi2jsoCm6vwqvOL-28" value="request" style="text;html=1;align=center;verticalAlign=middle;resizable=0;points=[];autosize=1;strokeColor=none;fillColor=none;" vertex="1" parent="1">
          <mxGeometry x="-140" y="245" width="60" height="30" as="geometry" />
        </mxCell>
        <mxCell id="d3GLhMi2jsoCm6vwqvOL-29" value="" style="shape=flexArrow;endArrow=classic;startArrow=classic;html=1;rounded=0;entryX=0;entryY=0.5;entryDx=0;entryDy=0;exitX=1;exitY=0.5;exitDx=0;exitDy=0;" edge="1" parent="1" source="d3GLhMi2jsoCm6vwqvOL-1" target="d3GLhMi2jsoCm6vwqvOL-2">
          <mxGeometry width="100" height="100" relative="1" as="geometry">
            <mxPoint x="170" y="450" as="sourcePoint" />
            <mxPoint x="270" y="350" as="targetPoint" />
          </mxGeometry>
        </mxCell>
        <mxCell id="d3GLhMi2jsoCm6vwqvOL-32" value="创建验证者" style="text;html=1;align=center;verticalAlign=middle;resizable=0;points=[];autosize=1;strokeColor=none;fillColor=none;" vertex="1" parent="1">
          <mxGeometry x="210" y="460" width="80" height="30" as="geometry" />
        </mxCell>
        <mxCell id="d3GLhMi2jsoCm6vwqvOL-33" value="&lt;div style=&quot;&quot; data-line-index=&quot;0&quot; data-zone-id=&quot;0&quot;&gt;web3-exporter&lt;/div&gt;" style="whiteSpace=wrap;html=1;rounded=1;" vertex="1" parent="1">
          <mxGeometry x="-220" y="460" width="120" height="60" as="geometry" />
        </mxCell>
        <mxCell id="d3GLhMi2jsoCm6vwqvOL-35" value="pubkey反查" style="text;html=1;align=center;verticalAlign=middle;resizable=0;points=[];autosize=1;strokeColor=none;fillColor=none;" vertex="1" parent="1">
          <mxGeometry x="-80" y="460" width="90" height="30" as="geometry" />
        </mxCell>
      </root>
    </mxGraphModel>
  </diagram>
</mxfile>
